<svg id="Ebene_1" data-name="Ebene 1" xmlns="http://www.w3.org/2000/svg" viewBox="0 0 627.84589 299.89746"><defs><style>.cls-1{fill:#1d1d1b;}</style></defs><title>JKU_Hauptlogo_en_schwarz_hoch_rgb</title><path class="cls-1" d="M467.42169,330.35425h15.27912v-6.34351H467.42169v-6.5744h17.36273v-6.34308H460.33759v32.41016h24.6781v-6.34308h-17.594Zm-52.20392-19.261H408.18v19.95526l-15.18646-19.95526h-6.57477v32.41016h7.03778V322.89984l15.69574,20.60358h6.06549Zm-72.79351,32.41016V311.09326h-7.1305v12.8252H322.14459v-12.8252h-7.13043v32.41016h7.13043V330.49286h13.14917v13.01056ZM367.697,310.86151h-6.5744l-13.8902,32.64191h7.269l2.96326-7.269h13.70484l2.96325,7.269h7.45441Zm-7.68573,19.07568,4.30585-10.50994,4.30585,10.50994Zm-182.73071-134.749c0,21.46356-9.5401,30.73816-24.90912,30.73816-12.98566,0-23.32019-6.889-33.91815-18.54913l-25.70575,28.6203c12.72009,15.10351,31.80029,27.82361,60.6839,27.82361,20.1402,0,36.83478-5.829,48.22937-17.22351,11.129-11.13123,17.489-27.56025,17.489-49.55494V92.74823H177.28058Zm88.79474,145.76862c1.94458-1.94458,3.05591-4.81519,3.05591-8.658V311.09326H261.8158v20.88123c0,3.75055-1.66694,5.37079-4.35218,5.37079-2.269,0-4.07452-1.20362-5.92645-3.24085l-4.49121,5.00049a13.24947,13.24947,0,0,0,10.6026,4.86151C261.16748,343.96643,264.08435,342.94775,266.07532,340.95685ZM423.355,311.09326v32.41016h7.03778V322.89984l15.6958,20.60358h6.06549V311.09326h-7.03778v19.95526l-15.18646-19.95526ZM434.94775,92.73041l-92.74755,79.457-92.74756-79.457v49.0238L342.2002,221.194l92.74755-79.43976Zm191.94873,87.61706V92.74756H586.08722v89.191c0,29.41467-15.10352,44.51819-40.01483,44.51819-24.90912,0-40.01264-15.63459-40.01264-45.84375V92.74756H465.25049V181.673c0,54.58942,30.47473,82.413,80.293,82.413S626.89648,236.52582,626.89648,180.34747ZM434.94775,221.194H249.45264v40.337H434.94775ZM309.44647,327.29834v-.09271c0-9.21363-7.17633-16.668-17.17737-16.668S274.999,318.08429,274.999,327.29834v.09265c0,9.21369,7.1764,16.66809,17.17743,16.66809S309.44647,336.512,309.44647,327.29834Zm-26.993,0v-.09271c0-5.55615,3.98187-10.09369,9.723-10.09369,5.74152,0,9.81562,4.63025,9.81562,10.1864v.09265c0,5.55579-3.98188,10.09332-9.723,10.09332S282.45343,332.85449,282.45343,327.29834Zm357.4024-16.20508H632.7254v32.41016h23.28919V337.0213H639.85583Zm-74.78161,0h-8.61206L543.313,325.26105V311.09326H536.1825v32.41016H543.313v-9.90833l3.75018-3.88916,10.0473,13.79749h8.56537l-13.79754-18.659Zm-61.81366,26.57636c-3.70429,0-6.76019-1.528-9.67706-3.93549l-4.21314,5.04681a20.62369,20.62369,0,0,0,13.75116,5.18549c6.99146,0,11.89929-3.61157,11.89929-10.04736v-.09229c0-5.6488-3.70428-8.01007-10.279-9.72339-5.60211-1.43524-6.991-2.12951-6.991-4.25946v-.09271c0-1.57428,1.43524-2.82422,4.16681-2.82422,2.73194,0,5.55615,1.20362,8.4267,3.19452l3.70428-5.37079a18.76414,18.76414,0,0,0-12.03833-4.12048c-6.62109,0-11.34356,3.88922-11.34356,9.76935v.09265c0,6.43579,4.21313,8.24133,10.74157,9.90832,5.41718,1.38892,6.52851,2.31488,6.52851,4.12049v.09265C507.93671,336.512,506.17743,337.66962,503.26056,337.66962Zm91.55914-.50928h-17.594v-6.80609h15.27911v-6.34351H577.22571v-6.5744h17.36273v-6.34308H570.1416v32.41016h24.6781Zm32.56073-14.76984v-.09265c0-6.62115-4.67615-11.20459-12.40857-11.20459H601.73v32.41016h7.13043v-9.723h5.41718C621.54663,333.78046,627.38043,329.89124,627.38043,322.3905Zm-7.22272.13861c0,2.77826-2.08361,4.90827-5.64886,4.90827h-5.64844V317.529h5.50983c3.56482,0,5.78747,1.71295,5.78747,4.90784Zm92.51832,9.399a10.06429,10.06429,0,0,0,6.94512-10.04694v-.09265a10.17359,10.17359,0,0,0-2.77789-7.40808c-2.12994-2.12994-5.32446-3.28717-9.44531-3.28717H692.58179v32.41016h7.13043V333.13214h5.60211l6.94507,10.37128h8.334Zm-.27759-9.67664c0,2.73157-1.991,4.58387-5.4635,4.58387h-7.22272V317.529H706.796c3.47253,0,5.60248,1.57392,5.60248,4.62982Zm-44.32093,8.10279h15.27912v-6.34351H668.07751v-6.5744h17.36274v-6.34308h-24.4469v32.41016h24.67816v-6.34308h-17.594ZM308.62012,379.66107l-15.18946-19.96h-6.57617v32.418h7.03906v-20.6084l15.69922,20.6084h6.0669v-32.418h-7.03955Zm296.56079,12.458h7.13183v-32.418h-7.13183Zm54.04394-26.166h17.27442l-17.83008,20.74707v5.41895h26.999v-6.252h-17.8291l17.8291-20.74707v-5.41895H659.22485Zm-15.5664,13.708-15.18946-19.96h-6.57617v32.418h7.03906v-20.6084l15.69922,20.6084h6.06739v-32.418h-7.04ZM270.56982,378.2724c0,5.13965-2.63964,7.7793-6.99267,7.7793s-6.99268-2.73145-6.99268-8.01075V359.70111h-7.13183v18.52441c0,9.54,5.32568,14.40235,14.03174,14.40235,8.70654,0,14.21728-4.81543,14.21728-14.63379v-18.293h-7.13184Zm113.85791.69434H399.71V372.622H384.42773v-6.57617H401.794v-6.34473H377.34229v32.418h24.68359v-6.34473H384.42773Zm73.81739-6.252c-5.60352-1.43554-6.99317-2.12988-6.99317-4.26074v-.09277c0-1.57422,1.43555-2.82422,4.168-2.82422s5.55762,1.2041,8.42871,3.19531l3.70508-5.37207a18.76679,18.76679,0,0,0-12.041-4.12207c-6.62207,0-11.34571,3.89063-11.34571,9.77148v.09278c0,6.4375,4.21387,8.24316,10.74414,9.91015,5.418,1.38965,6.5293,2.31543,6.5293,4.12207v.09278c0,1.89844-1.75977,3.05664-4.67676,3.05664-3.70508,0-6.76172-1.52832-9.67969-3.93652l-4.21386,5.04785A20.63133,20.63133,0,0,0,456.624,392.582c6.99317,0,11.90235-3.6123,11.90235-10.0498v-.0918C468.52637,376.79,464.82129,374.42865,458.24512,372.71478Zm-20.8877-2.22265v-.09278c0-6.66894-4.585-10.69824-12.22558-10.69824H410.3125v32.418h7.13184v-10.374h5.60351l6.94629,10.374h8.33594L430.41113,380.541A10.06752,10.06752,0,0,0,437.35742,370.49213Zm-7.22461.37011c0,2.73243-1.99121,4.585-5.46484,4.585h-7.22363v-9.30859h7.085c3.47363,0,5.60351,1.57422,5.60351,4.63086Zm46.31446,21.25684h7.13183v-32.418h-7.13183Zm13.57226-25.8418h9.86426v25.8418h7.13184v-25.8418h9.86425v-6.57617H490.01953ZM325.312,392.11908h7.13184v-32.418H325.312Zm257.23511-32.418h-7.13184v32.418h23.29395v-6.4834H582.54712Zm-227.533,22.83106-8.47461-22.83106H338.6665l13.106,32.64941h6.29834l13.106-32.64941h-7.6875Zm182.7251-9.81739-7.7334-13.01367h-8.33594l12.457,19.63574v12.78223h7.13184v-12.9209l12.458-19.49707h-8.1045Z" transform="translate(-92.74756 -92.73041)"/></svg>